<?xml version="1.0" encoding="utf-8"?>
<!-- Generator: Adobe Illustrator 26.4.1, SVG Export Plug-In . SVG Version: 6.00 Build 0)  -->
<svg version="1.0" id="katman_1" xmlns="http://www.w3.org/2000/svg" xmlns:xlink="http://www.w3.org/1999/xlink" x="0px" y="0px"
	 viewBox="0 0 841.89 595.28" style="enable-background:new 0 0 841.89 595.28;" xml:space="preserve">
<style type="text/css">
	.st0{fill-rule:evenodd;clip-rule:evenodd;fill:#56AF31;}
	.st1{fill-rule:evenodd;clip-rule:evenodd;fill:#FFFFFF;}
</style>
<g>
	<path class="st0" d="M526.79,509.77H314.39c-58.66,0-106.21-47.55-106.21-106.21V191.16c0-58.66,47.55-106.21,106.21-106.21h212.41
		C585.45,84.95,633,132.5,633,191.16v212.41C633,462.22,585.45,509.77,526.79,509.77"/>
	<path class="st1" d="M509.48,406.8h-78.27c-7.06,0-12.79-5.73-12.79-12.79c0-7.06,5.73-12.78,12.79-12.78h78.27
		c11.06,0,20.06-9,20.06-20.06v-88c0-8.85-5.94-16.77-14.43-19.24c-1.81-0.53-3.71-0.8-5.63-0.8h-169.3
		c-7.01,0-13.57-1.99-19.12-5.43v20.11c0,7.07-5.72,12.79-12.79,12.79c-7.06,0-12.78-5.72-12.78-12.79V226.7
		c0-20.32,13-38.1,32.36-44.23c6.6-2.1,13.66,1.43,15.94,7.97c2.28,6.53-1.05,13.7-7.51,16.16c-4.16,1.58-6.94,5.64-6.94,10.1
		c0,5.98,4.86,10.86,10.86,10.86h169.3c4.35,0,8.65,0.61,12.79,1.82c19.34,5.62,32.85,23.63,32.85,43.78v88
		C555.11,386.34,534.64,406.8,509.48,406.8"/>
	<path class="st1" d="M336.02,206.69c-4.07,1.69-6.68,5.58-6.68,10.01c0,5.98,4.87,10.85,10.86,10.85h165.69v-0.85
		c0-11.5-9.35-20.85-20.85-20.85H342.2c-0.26,0.02-0.53,0.03-0.79,0.03C339.56,205.9,337.75,206.17,336.02,206.69L336.02,206.69z
		 M518.68,254.45c-1.22,0-2.46-0.17-3.66-0.53c-1.75-0.52-3.61-0.79-5.53-0.79H340.19c-20.09,0-36.43-16.34-36.43-36.43
		c0-14.97,9.39-28.63,23.36-34c0.31-0.12,0.63-0.23,0.96-0.33c4.14-1.3,8.45-2,12.82-2.07c0.35-0.02,0.69-0.03,1.01-0.03h143.12
		c25.6,0,46.43,20.83,46.43,46.43v14.96c0,4.04-1.91,7.84-5.15,10.26C524.08,253.59,521.4,254.45,518.68,254.45z M464.62,315.84
		c0,10.24,8.3,18.54,18.55,18.54c10.24,0,18.54-8.3,18.54-18.54s-8.3-18.55-18.54-18.55C472.92,297.29,464.62,305.6,464.62,315.84
		 M364.6,378.58c-2.21,2.21-5.15,3.43-8.28,3.43c-3.12,0-6.06-1.22-8.28-3.43l-11.18-11.18c-2.22-2.21-3.43-5.15-3.43-8.28v-28.63
		c0-6.46,5.26-11.71,11.71-11.71c6.46,0,11.71,5.25,11.71,11.7v23.78l7.74,7.74c2.21,2.21,3.43,5.15,3.43,8.28
		S366.82,376.37,364.6,378.58 M345.32,295.93c-32.67,0-59.26,26.58-59.26,59.26c0,32.68,26.58,59.26,59.26,59.26
		c32.68,0,59.26-26.58,59.26-59.26S378,295.93,345.32,295.93"/>
</g>
</svg>
